# xmcd CD database file
#
# Track frame offsets:
#	150
#	28149
#	52232
#	78529
#	110364
#	131540
#	140859
#	155337
#	168634
#
# Disc length: 2494 seconds
#
# Revision: 0
# Processed by: cddbd v1.5PL3 Copyright (c) Steve Scherf et al.
# Submitted via: CDex 1.51
#
DISCID=8109bc09
DTITLE=Stan Getz - Jazz Jamboree 1960
DYEAR=1998
DGENRE=Jazz
TTITLE0=But not for me
TTITLE1=Cherokee
TTITLE2=Darn that dream
TTITLE3=Out of nowhere
TTITLE4=The folks that live on the hill
TTITLE5=In a senimental mood
TTITLE6=Nana imboro
TTITLE7=Nineteenager's bounce
TTITLE8=Infirmary impression
EXTD=YEAR: 1998
EXTT0=
EXTT1=
EXTT2=
EXTT3=
EXTT4=
EXTT5=
EXTT6=
EXTT7=
EXTT8=
PLAYORDER=
